<mxfile host="app.diagrams.net" modified="2020-11-16T16:15:49.569Z" agent="5.0 (Windows NT 10.0; Win64; x64) AppleWebKit/537.36 (KHTML, like Gecko) Chrome/86.0.4240.198 Safari/537.36" etag="crEzTMDqROkhhrA4Acxw" version="13.9.9" type="gitlab">
  <diagram name="Page-1" id="929967ad-93f9-6ef4-fab6-5d389245f69c">
    <mxGraphModel dx="2031" dy="1134" grid="1" gridSize="10" guides="1" tooltips="1" connect="1" arrows="1" fold="1" page="1" pageScale="1.5" pageWidth="1169" pageHeight="826" background="none" math="0" shadow="0">
      <root>
        <mxCell id="0" style=";html=1;" />
        <mxCell id="1" style=";html=1;" parent="0" />
        <mxCell id="H1896AjHUctSjdvz1oI7-7" value="Game" style="swimlane;fontStyle=1;align=center;verticalAlign=top;childLayout=stackLayout;horizontal=1;startSize=26;horizontalStack=0;resizeParent=1;resizeParentMax=0;resizeLast=0;collapsible=1;marginBottom=0;" parent="1" vertex="1">
          <mxGeometry x="590" y="444" width="160" height="242" as="geometry" />
        </mxCell>
        <mxCell id="H1896AjHUctSjdvz1oI7-8" value="- Player1&#xa;" style="text;strokeColor=none;fillColor=none;align=left;verticalAlign=top;spacingLeft=4;spacingRight=4;overflow=hidden;rotatable=0;points=[[0,0.5],[1,0.5]];portConstraint=eastwest;" parent="H1896AjHUctSjdvz1oI7-7" vertex="1">
          <mxGeometry y="26" width="160" height="26" as="geometry" />
        </mxCell>
        <mxCell id="H1896AjHUctSjdvz1oI7-12" value="- Player2" style="text;strokeColor=none;fillColor=none;align=left;verticalAlign=top;spacingLeft=4;spacingRight=4;overflow=hidden;rotatable=0;points=[[0,0.5],[1,0.5]];portConstraint=eastwest;" parent="H1896AjHUctSjdvz1oI7-7" vertex="1">
          <mxGeometry y="52" width="160" height="26" as="geometry" />
        </mxCell>
        <mxCell id="H1896AjHUctSjdvz1oI7-13" value="- List&lt;Dice&gt;&#xa;&#xa;" style="text;strokeColor=none;fillColor=none;align=left;verticalAlign=top;spacingLeft=4;spacingRight=4;overflow=hidden;rotatable=0;points=[[0,0.5],[1,0.5]];portConstraint=eastwest;" parent="H1896AjHUctSjdvz1oI7-7" vertex="1">
          <mxGeometry y="78" width="160" height="26" as="geometry" />
        </mxCell>
        <mxCell id="NZDahVDV4dqtFsmkMAfQ-1" value="- TicketPlayer1" style="text;strokeColor=none;fillColor=none;align=left;verticalAlign=top;spacingLeft=4;spacingRight=4;overflow=hidden;rotatable=0;points=[[0,0.5],[1,0.5]];portConstraint=eastwest;" vertex="1" parent="H1896AjHUctSjdvz1oI7-7">
          <mxGeometry y="104" width="160" height="26" as="geometry" />
        </mxCell>
        <mxCell id="NZDahVDV4dqtFsmkMAfQ-2" value="- TicketPlayer2" style="text;strokeColor=none;fillColor=none;align=left;verticalAlign=top;spacingLeft=4;spacingRight=4;overflow=hidden;rotatable=0;points=[[0,0.5],[1,0.5]];portConstraint=eastwest;" vertex="1" parent="H1896AjHUctSjdvz1oI7-7">
          <mxGeometry y="130" width="160" height="26" as="geometry" />
        </mxCell>
        <mxCell id="H1896AjHUctSjdvz1oI7-20" value="- Server&#xa;" style="text;strokeColor=none;fillColor=none;align=left;verticalAlign=top;spacingLeft=4;spacingRight=4;overflow=hidden;rotatable=0;points=[[0,0.5],[1,0.5]];portConstraint=eastwest;" parent="H1896AjHUctSjdvz1oI7-7" vertex="1">
          <mxGeometry y="156" width="160" height="26" as="geometry" />
        </mxCell>
        <mxCell id="H1896AjHUctSjdvz1oI7-9" value="" style="line;strokeWidth=1;fillColor=none;align=left;verticalAlign=middle;spacingTop=-1;spacingLeft=3;spacingRight=3;rotatable=0;labelPosition=right;points=[];portConstraint=eastwest;" parent="H1896AjHUctSjdvz1oI7-7" vertex="1">
          <mxGeometry y="182" width="160" height="8" as="geometry" />
        </mxCell>
        <mxCell id="H1896AjHUctSjdvz1oI7-10" value="- switchPlayers()" style="text;strokeColor=none;fillColor=none;align=left;verticalAlign=top;spacingLeft=4;spacingRight=4;overflow=hidden;rotatable=0;points=[[0,0.5],[1,0.5]];portConstraint=eastwest;" parent="H1896AjHUctSjdvz1oI7-7" vertex="1">
          <mxGeometry y="190" width="160" height="26" as="geometry" />
        </mxCell>
        <mxCell id="3jf83I4nimgOCl_raEro-9" value="+ getGameState()" style="text;strokeColor=none;fillColor=none;align=left;verticalAlign=top;spacingLeft=4;spacingRight=4;overflow=hidden;rotatable=0;points=[[0,0.5],[1,0.5]];portConstraint=eastwest;" parent="H1896AjHUctSjdvz1oI7-7" vertex="1">
          <mxGeometry y="216" width="160" height="26" as="geometry" />
        </mxCell>
        <mxCell id="H1896AjHUctSjdvz1oI7-14" value="Dice" style="swimlane;fontStyle=1;align=center;verticalAlign=top;childLayout=stackLayout;horizontal=1;startSize=26;horizontalStack=0;resizeParent=1;resizeParentMax=0;resizeLast=0;collapsible=1;marginBottom=0;" parent="1" vertex="1">
          <mxGeometry x="911" y="513" width="160" height="112" as="geometry" />
        </mxCell>
        <mxCell id="H1896AjHUctSjdvz1oI7-15" value="- number" style="text;strokeColor=none;fillColor=none;align=left;verticalAlign=top;spacingLeft=4;spacingRight=4;overflow=hidden;rotatable=0;points=[[0,0.5],[1,0.5]];portConstraint=eastwest;" parent="H1896AjHUctSjdvz1oI7-14" vertex="1">
          <mxGeometry y="26" width="160" height="26" as="geometry" />
        </mxCell>
        <mxCell id="H1896AjHUctSjdvz1oI7-16" value="" style="line;strokeWidth=1;fillColor=none;align=left;verticalAlign=middle;spacingTop=-1;spacingLeft=3;spacingRight=3;rotatable=0;labelPosition=right;points=[];portConstraint=eastwest;" parent="H1896AjHUctSjdvz1oI7-14" vertex="1">
          <mxGeometry y="52" width="160" height="8" as="geometry" />
        </mxCell>
        <mxCell id="H1896AjHUctSjdvz1oI7-17" value="+ roll()" style="text;strokeColor=none;fillColor=none;align=left;verticalAlign=top;spacingLeft=4;spacingRight=4;overflow=hidden;rotatable=0;points=[[0,0.5],[1,0.5]];portConstraint=eastwest;" parent="H1896AjHUctSjdvz1oI7-14" vertex="1">
          <mxGeometry y="60" width="160" height="26" as="geometry" />
        </mxCell>
        <mxCell id="3jf83I4nimgOCl_raEro-14" value="+ getNumber()" style="text;strokeColor=none;fillColor=none;align=left;verticalAlign=top;spacingLeft=4;spacingRight=4;overflow=hidden;rotatable=0;points=[[0,0.5],[1,0.5]];portConstraint=eastwest;" parent="H1896AjHUctSjdvz1oI7-14" vertex="1">
          <mxGeometry y="86" width="160" height="26" as="geometry" />
        </mxCell>
        <mxCell id="H1896AjHUctSjdvz1oI7-35" value="Server" style="swimlane;fontStyle=1;align=center;verticalAlign=top;childLayout=stackLayout;horizontal=1;startSize=26;horizontalStack=0;resizeParent=1;resizeParentMax=0;resizeLast=0;collapsible=1;marginBottom=0;" parent="1" vertex="1">
          <mxGeometry x="590" y="280" width="160" height="86" as="geometry" />
        </mxCell>
        <mxCell id="H1896AjHUctSjdvz1oI7-36" value="- TODO" style="text;strokeColor=none;fillColor=none;align=left;verticalAlign=top;spacingLeft=4;spacingRight=4;overflow=hidden;rotatable=0;points=[[0,0.5],[1,0.5]];portConstraint=eastwest;" parent="H1896AjHUctSjdvz1oI7-35" vertex="1">
          <mxGeometry y="26" width="160" height="26" as="geometry" />
        </mxCell>
        <mxCell id="H1896AjHUctSjdvz1oI7-37" value="" style="line;strokeWidth=1;fillColor=none;align=left;verticalAlign=middle;spacingTop=-1;spacingLeft=3;spacingRight=3;rotatable=0;labelPosition=right;points=[];portConstraint=eastwest;" parent="H1896AjHUctSjdvz1oI7-35" vertex="1">
          <mxGeometry y="52" width="160" height="8" as="geometry" />
        </mxCell>
        <mxCell id="H1896AjHUctSjdvz1oI7-38" value="+ TODO" style="text;strokeColor=none;fillColor=none;align=left;verticalAlign=top;spacingLeft=4;spacingRight=4;overflow=hidden;rotatable=0;points=[[0,0.5],[1,0.5]];portConstraint=eastwest;" parent="H1896AjHUctSjdvz1oI7-35" vertex="1">
          <mxGeometry y="60" width="160" height="26" as="geometry" />
        </mxCell>
        <mxCell id="H1896AjHUctSjdvz1oI7-39" value="Ticket&#xa;" style="swimlane;fontStyle=1;align=center;verticalAlign=top;childLayout=stackLayout;horizontal=1;startSize=26;horizontalStack=0;resizeParent=1;resizeParentMax=0;resizeLast=0;collapsible=1;marginBottom=0;" parent="1" vertex="1">
          <mxGeometry x="910" y="660" width="160" height="112" as="geometry" />
        </mxCell>
        <mxCell id="H1896AjHUctSjdvz1oI7-40" value="- List&lt;Column&gt;" style="text;strokeColor=none;fillColor=none;align=left;verticalAlign=top;spacingLeft=4;spacingRight=4;overflow=hidden;rotatable=0;points=[[0,0.5],[1,0.5]];portConstraint=eastwest;" parent="H1896AjHUctSjdvz1oI7-39" vertex="1">
          <mxGeometry y="26" width="160" height="26" as="geometry" />
        </mxCell>
        <mxCell id="H1896AjHUctSjdvz1oI7-41" value="" style="line;strokeWidth=1;fillColor=none;align=left;verticalAlign=middle;spacingTop=-1;spacingLeft=3;spacingRight=3;rotatable=0;labelPosition=right;points=[];portConstraint=eastwest;" parent="H1896AjHUctSjdvz1oI7-39" vertex="1">
          <mxGeometry y="52" width="160" height="8" as="geometry" />
        </mxCell>
        <mxCell id="H1896AjHUctSjdvz1oI7-42" value="+ ToMatrix()" style="text;strokeColor=none;fillColor=none;align=left;verticalAlign=top;spacingLeft=4;spacingRight=4;overflow=hidden;rotatable=0;points=[[0,0.5],[1,0.5]];portConstraint=eastwest;" parent="H1896AjHUctSjdvz1oI7-39" vertex="1">
          <mxGeometry y="60" width="160" height="26" as="geometry" />
        </mxCell>
        <mxCell id="3jf83I4nimgOCl_raEro-13" value="+ getScore()" style="text;strokeColor=none;fillColor=none;align=left;verticalAlign=top;spacingLeft=4;spacingRight=4;overflow=hidden;rotatable=0;points=[[0,0.5],[1,0.5]];portConstraint=eastwest;" parent="H1896AjHUctSjdvz1oI7-39" vertex="1">
          <mxGeometry y="86" width="160" height="26" as="geometry" />
        </mxCell>
        <mxCell id="H1896AjHUctSjdvz1oI7-47" value="Column&#xa;" style="swimlane;fontStyle=1;align=center;verticalAlign=top;childLayout=stackLayout;horizontal=1;startSize=26;horizontalStack=0;resizeParent=1;resizeParentMax=0;resizeLast=0;collapsible=1;marginBottom=0;" parent="1" vertex="1">
          <mxGeometry x="1180" y="690" width="160" height="164" as="geometry" />
        </mxCell>
        <mxCell id="H1896AjHUctSjdvz1oI7-48" value="- List&lt;Field&gt;" style="text;strokeColor=none;fillColor=none;align=left;verticalAlign=top;spacingLeft=4;spacingRight=4;overflow=hidden;rotatable=0;points=[[0,0.5],[1,0.5]];portConstraint=eastwest;" parent="H1896AjHUctSjdvz1oI7-47" vertex="1">
          <mxGeometry y="26" width="160" height="26" as="geometry" />
        </mxCell>
        <mxCell id="3jf83I4nimgOCl_raEro-10" value="- Rule" style="text;strokeColor=none;fillColor=none;align=left;verticalAlign=top;spacingLeft=4;spacingRight=4;overflow=hidden;rotatable=0;points=[[0,0.5],[1,0.5]];portConstraint=eastwest;" parent="H1896AjHUctSjdvz1oI7-47" vertex="1">
          <mxGeometry y="52" width="160" height="26" as="geometry" />
        </mxCell>
        <mxCell id="H1896AjHUctSjdvz1oI7-49" value="" style="line;strokeWidth=1;fillColor=none;align=left;verticalAlign=middle;spacingTop=-1;spacingLeft=3;spacingRight=3;rotatable=0;labelPosition=right;points=[];portConstraint=eastwest;" parent="H1896AjHUctSjdvz1oI7-47" vertex="1">
          <mxGeometry y="78" width="160" height="8" as="geometry" />
        </mxCell>
        <mxCell id="H1896AjHUctSjdvz1oI7-50" value="+ method(type): type" style="text;strokeColor=none;fillColor=none;align=left;verticalAlign=top;spacingLeft=4;spacingRight=4;overflow=hidden;rotatable=0;points=[[0,0.5],[1,0.5]];portConstraint=eastwest;" parent="H1896AjHUctSjdvz1oI7-47" vertex="1">
          <mxGeometry y="86" width="160" height="26" as="geometry" />
        </mxCell>
        <mxCell id="3jf83I4nimgOCl_raEro-11" value="+ getRule()" style="text;strokeColor=none;fillColor=none;align=left;verticalAlign=top;spacingLeft=4;spacingRight=4;overflow=hidden;rotatable=0;points=[[0,0.5],[1,0.5]];portConstraint=eastwest;" parent="H1896AjHUctSjdvz1oI7-47" vertex="1">
          <mxGeometry y="112" width="160" height="26" as="geometry" />
        </mxCell>
        <mxCell id="3jf83I4nimgOCl_raEro-12" value="+ getScore()" style="text;strokeColor=none;fillColor=none;align=left;verticalAlign=top;spacingLeft=4;spacingRight=4;overflow=hidden;rotatable=0;points=[[0,0.5],[1,0.5]];portConstraint=eastwest;" parent="H1896AjHUctSjdvz1oI7-47" vertex="1">
          <mxGeometry y="138" width="160" height="26" as="geometry" />
        </mxCell>
        <mxCell id="H1896AjHUctSjdvz1oI7-51" value="Field" style="swimlane;fontStyle=1;align=center;verticalAlign=top;childLayout=stackLayout;horizontal=1;startSize=26;horizontalStack=0;resizeParent=1;resizeParentMax=0;resizeLast=0;collapsible=1;marginBottom=0;" parent="1" vertex="1">
          <mxGeometry x="1440" y="720" width="160" height="86" as="geometry" />
        </mxCell>
        <mxCell id="H1896AjHUctSjdvz1oI7-52" value="- value" style="text;strokeColor=none;fillColor=none;align=left;verticalAlign=top;spacingLeft=4;spacingRight=4;overflow=hidden;rotatable=0;points=[[0,0.5],[1,0.5]];portConstraint=eastwest;" parent="H1896AjHUctSjdvz1oI7-51" vertex="1">
          <mxGeometry y="26" width="160" height="26" as="geometry" />
        </mxCell>
        <mxCell id="H1896AjHUctSjdvz1oI7-53" value="" style="line;strokeWidth=1;fillColor=none;align=left;verticalAlign=middle;spacingTop=-1;spacingLeft=3;spacingRight=3;rotatable=0;labelPosition=right;points=[];portConstraint=eastwest;" parent="H1896AjHUctSjdvz1oI7-51" vertex="1">
          <mxGeometry y="52" width="160" height="8" as="geometry" />
        </mxCell>
        <mxCell id="H1896AjHUctSjdvz1oI7-54" value="+ getValue()" style="text;strokeColor=none;fillColor=none;align=left;verticalAlign=top;spacingLeft=4;spacingRight=4;overflow=hidden;rotatable=0;points=[[0,0.5],[1,0.5]];portConstraint=eastwest;" parent="H1896AjHUctSjdvz1oI7-51" vertex="1">
          <mxGeometry y="60" width="160" height="26" as="geometry" />
        </mxCell>
        <mxCell id="H1896AjHUctSjdvz1oI7-55" value="Chat" style="swimlane;fontStyle=1;align=center;verticalAlign=top;childLayout=stackLayout;horizontal=1;startSize=26;horizontalStack=0;resizeParent=1;resizeParentMax=0;resizeLast=0;collapsible=1;marginBottom=0;" parent="1" vertex="1">
          <mxGeometry x="271" y="280" width="160" height="112" as="geometry" />
        </mxCell>
        <mxCell id="H1896AjHUctSjdvz1oI7-56" value="+ Player1" style="text;strokeColor=none;fillColor=none;align=left;verticalAlign=top;spacingLeft=4;spacingRight=4;overflow=hidden;rotatable=0;points=[[0,0.5],[1,0.5]];portConstraint=eastwest;" parent="H1896AjHUctSjdvz1oI7-55" vertex="1">
          <mxGeometry y="26" width="160" height="26" as="geometry" />
        </mxCell>
        <mxCell id="3jf83I4nimgOCl_raEro-22" value="+ Player2" style="text;strokeColor=none;fillColor=none;align=left;verticalAlign=top;spacingLeft=4;spacingRight=4;overflow=hidden;rotatable=0;points=[[0,0.5],[1,0.5]];portConstraint=eastwest;" parent="H1896AjHUctSjdvz1oI7-55" vertex="1">
          <mxGeometry y="52" width="160" height="26" as="geometry" />
        </mxCell>
        <mxCell id="H1896AjHUctSjdvz1oI7-57" value="" style="line;strokeWidth=1;fillColor=none;align=left;verticalAlign=middle;spacingTop=-1;spacingLeft=3;spacingRight=3;rotatable=0;labelPosition=right;points=[];portConstraint=eastwest;" parent="H1896AjHUctSjdvz1oI7-55" vertex="1">
          <mxGeometry y="78" width="160" height="8" as="geometry" />
        </mxCell>
        <mxCell id="H1896AjHUctSjdvz1oI7-58" value="+ TODO" style="text;strokeColor=none;fillColor=none;align=left;verticalAlign=top;spacingLeft=4;spacingRight=4;overflow=hidden;rotatable=0;points=[[0,0.5],[1,0.5]];portConstraint=eastwest;" parent="H1896AjHUctSjdvz1oI7-55" vertex="1">
          <mxGeometry y="86" width="160" height="26" as="geometry" />
        </mxCell>
        <mxCell id="H1896AjHUctSjdvz1oI7-63" value="HumanPlayer" style="swimlane;fontStyle=1;align=center;verticalAlign=top;childLayout=stackLayout;horizontal=1;startSize=26;horizontalStack=0;resizeParent=1;resizeParentMax=0;resizeLast=0;collapsible=1;marginBottom=0;" parent="1" vertex="1">
          <mxGeometry x="140" y="620" width="160" height="86" as="geometry" />
        </mxCell>
        <mxCell id="H1896AjHUctSjdvz1oI7-64" value="- TODO" style="text;strokeColor=none;fillColor=none;align=left;verticalAlign=top;spacingLeft=4;spacingRight=4;overflow=hidden;rotatable=0;points=[[0,0.5],[1,0.5]];portConstraint=eastwest;" parent="H1896AjHUctSjdvz1oI7-63" vertex="1">
          <mxGeometry y="26" width="160" height="26" as="geometry" />
        </mxCell>
        <mxCell id="H1896AjHUctSjdvz1oI7-65" value="" style="line;strokeWidth=1;fillColor=none;align=left;verticalAlign=middle;spacingTop=-1;spacingLeft=3;spacingRight=3;rotatable=0;labelPosition=right;points=[];portConstraint=eastwest;" parent="H1896AjHUctSjdvz1oI7-63" vertex="1">
          <mxGeometry y="52" width="160" height="8" as="geometry" />
        </mxCell>
        <mxCell id="H1896AjHUctSjdvz1oI7-66" value="+ TODO" style="text;strokeColor=none;fillColor=none;align=left;verticalAlign=top;spacingLeft=4;spacingRight=4;overflow=hidden;rotatable=0;points=[[0,0.5],[1,0.5]];portConstraint=eastwest;" parent="H1896AjHUctSjdvz1oI7-63" vertex="1">
          <mxGeometry y="60" width="160" height="26" as="geometry" />
        </mxCell>
        <mxCell id="H1896AjHUctSjdvz1oI7-71" value="BotPlayer" style="swimlane;fontStyle=1;align=center;verticalAlign=top;childLayout=stackLayout;horizontal=1;startSize=26;horizontalStack=0;resizeParent=1;resizeParentMax=0;resizeLast=0;collapsible=1;marginBottom=0;" parent="1" vertex="1">
          <mxGeometry x="381" y="623" width="160" height="86" as="geometry" />
        </mxCell>
        <mxCell id="H1896AjHUctSjdvz1oI7-72" value="- TODO" style="text;strokeColor=none;fillColor=none;align=left;verticalAlign=top;spacingLeft=4;spacingRight=4;overflow=hidden;rotatable=0;points=[[0,0.5],[1,0.5]];portConstraint=eastwest;" parent="H1896AjHUctSjdvz1oI7-71" vertex="1">
          <mxGeometry y="26" width="160" height="26" as="geometry" />
        </mxCell>
        <mxCell id="H1896AjHUctSjdvz1oI7-73" value="" style="line;strokeWidth=1;fillColor=none;align=left;verticalAlign=middle;spacingTop=-1;spacingLeft=3;spacingRight=3;rotatable=0;labelPosition=right;points=[];portConstraint=eastwest;" parent="H1896AjHUctSjdvz1oI7-71" vertex="1">
          <mxGeometry y="52" width="160" height="8" as="geometry" />
        </mxCell>
        <mxCell id="H1896AjHUctSjdvz1oI7-74" value="+ TODO" style="text;strokeColor=none;fillColor=none;align=left;verticalAlign=top;spacingLeft=4;spacingRight=4;overflow=hidden;rotatable=0;points=[[0,0.5],[1,0.5]];portConstraint=eastwest;" parent="H1896AjHUctSjdvz1oI7-71" vertex="1">
          <mxGeometry y="60" width="160" height="26" as="geometry" />
        </mxCell>
        <mxCell id="3jf83I4nimgOCl_raEro-2" value="Player" style="swimlane;fontStyle=3;align=center;verticalAlign=top;childLayout=stackLayout;horizontal=1;startSize=26;horizontalStack=0;resizeParent=1;resizeParentMax=0;resizeLast=0;collapsible=1;marginBottom=0;" parent="1" vertex="1">
          <mxGeometry x="261" y="473" width="160" height="86" as="geometry" />
        </mxCell>
        <mxCell id="3jf83I4nimgOCl_raEro-3" value="- TODO" style="text;strokeColor=none;fillColor=none;align=left;verticalAlign=top;spacingLeft=4;spacingRight=4;overflow=hidden;rotatable=0;points=[[0,0.5],[1,0.5]];portConstraint=eastwest;" parent="3jf83I4nimgOCl_raEro-2" vertex="1">
          <mxGeometry y="26" width="160" height="26" as="geometry" />
        </mxCell>
        <mxCell id="3jf83I4nimgOCl_raEro-4" value="" style="line;strokeWidth=1;fillColor=none;align=left;verticalAlign=middle;spacingTop=-1;spacingLeft=3;spacingRight=3;rotatable=0;labelPosition=right;points=[];portConstraint=eastwest;" parent="3jf83I4nimgOCl_raEro-2" vertex="1">
          <mxGeometry y="52" width="160" height="8" as="geometry" />
        </mxCell>
        <mxCell id="3jf83I4nimgOCl_raEro-5" value="+ Throw()" style="text;strokeColor=none;fillColor=none;align=left;verticalAlign=top;spacingLeft=4;spacingRight=4;overflow=hidden;rotatable=0;points=[[0,0.5],[1,0.5]];portConstraint=eastwest;fontStyle=2" parent="3jf83I4nimgOCl_raEro-2" vertex="1">
          <mxGeometry y="60" width="160" height="26" as="geometry" />
        </mxCell>
        <mxCell id="3jf83I4nimgOCl_raEro-7" value="" style="endArrow=block;dashed=1;endFill=0;endSize=12;html=1;entryX=0.25;entryY=1.001;entryDx=0;entryDy=0;entryPerimeter=0;" parent="1" target="3jf83I4nimgOCl_raEro-5" edge="1">
          <mxGeometry width="160" relative="1" as="geometry">
            <mxPoint x="221" y="623" as="sourcePoint" />
            <mxPoint x="341" y="583" as="targetPoint" />
            <Array as="points">
              <mxPoint x="221" y="583" />
              <mxPoint x="301" y="583" />
            </Array>
          </mxGeometry>
        </mxCell>
        <mxCell id="3jf83I4nimgOCl_raEro-8" value="" style="endArrow=block;dashed=1;endFill=0;endSize=12;html=1;entryX=0.749;entryY=1.031;entryDx=0;entryDy=0;entryPerimeter=0;" parent="1" target="3jf83I4nimgOCl_raEro-5" edge="1">
          <mxGeometry width="160" relative="1" as="geometry">
            <mxPoint x="461" y="623" as="sourcePoint" />
            <mxPoint x="371" y="583" as="targetPoint" />
            <Array as="points">
              <mxPoint x="461" y="583" />
              <mxPoint x="381" y="583" />
            </Array>
          </mxGeometry>
        </mxCell>
        <mxCell id="3jf83I4nimgOCl_raEro-17" value="" style="endArrow=open;html=1;endSize=12;startArrow=diamondThin;startSize=14;startFill=1;edgeStyle=orthogonalEdgeStyle;strokeColor=#000000;" parent="1" edge="1">
          <mxGeometry relative="1" as="geometry">
            <mxPoint x="751" y="533" as="sourcePoint" />
            <mxPoint x="911" y="533" as="targetPoint" />
          </mxGeometry>
        </mxCell>
        <mxCell id="3jf83I4nimgOCl_raEro-18" value="6" style="edgeLabel;resizable=0;html=1;align=left;verticalAlign=top;" parent="3jf83I4nimgOCl_raEro-17" connectable="0" vertex="1">
          <mxGeometry x="-1" relative="1" as="geometry" />
        </mxCell>
        <mxCell id="3jf83I4nimgOCl_raEro-19" value="1" style="edgeLabel;resizable=0;html=1;align=right;verticalAlign=top;" parent="3jf83I4nimgOCl_raEro-17" connectable="0" vertex="1">
          <mxGeometry x="1" relative="1" as="geometry" />
        </mxCell>
        <mxCell id="3jf83I4nimgOCl_raEro-20" value="" style="endArrow=open;endFill=1;endSize=12;html=1;strokeColor=#000000;exitX=0;exitY=0.5;exitDx=0;exitDy=0;entryX=1.002;entryY=0.109;entryDx=0;entryDy=0;entryPerimeter=0;" parent="1" source="H1896AjHUctSjdvz1oI7-8" target="3jf83I4nimgOCl_raEro-2" edge="1">
          <mxGeometry width="160" relative="1" as="geometry">
            <mxPoint x="451" y="483" as="sourcePoint" />
            <mxPoint x="431" y="483" as="targetPoint" />
          </mxGeometry>
        </mxCell>
        <mxCell id="3jf83I4nimgOCl_raEro-21" value="" style="endArrow=open;endSize=12;dashed=1;html=1;strokeColor=#000000;entryX=0.5;entryY=0;entryDx=0;entryDy=0;exitX=0.5;exitY=1;exitDx=0;exitDy=0;" parent="1" source="H1896AjHUctSjdvz1oI7-35" target="H1896AjHUctSjdvz1oI7-7" edge="1">
          <mxGeometry width="160" relative="1" as="geometry">
            <mxPoint x="670" y="343" as="sourcePoint" />
            <mxPoint x="671" y="343" as="targetPoint" />
            <Array as="points" />
          </mxGeometry>
        </mxCell>
        <mxCell id="3jf83I4nimgOCl_raEro-23" value="" style="endArrow=open;endFill=1;endSize=12;html=1;strokeColor=#000000;exitX=0;exitY=0.5;exitDx=0;exitDy=0;entryX=0.002;entryY=0.112;entryDx=0;entryDy=0;entryPerimeter=0;" parent="1" target="3jf83I4nimgOCl_raEro-2" edge="1">
          <mxGeometry width="160" relative="1" as="geometry">
            <mxPoint x="270.99999999999994" y="313.63" as="sourcePoint" />
            <mxPoint x="251" y="483" as="targetPoint" />
            <Array as="points">
              <mxPoint x="201" y="314" />
              <mxPoint x="201" y="483" />
            </Array>
          </mxGeometry>
        </mxCell>
        <mxCell id="3jf83I4nimgOCl_raEro-24" value="" style="endArrow=open;endSize=12;dashed=1;html=1;strokeColor=#000000;entryX=1.006;entryY=0.122;entryDx=0;entryDy=0;entryPerimeter=0;" parent="1" target="H1896AjHUctSjdvz1oI7-55" edge="1">
          <mxGeometry width="160" relative="1" as="geometry">
            <mxPoint x="591" y="293" as="sourcePoint" />
            <mxPoint x="441" y="293" as="targetPoint" />
          </mxGeometry>
        </mxCell>
        <mxCell id="3jf83I4nimgOCl_raEro-25" value="" style="endArrow=open;html=1;endSize=12;startArrow=diamondThin;startSize=14;startFill=1;edgeStyle=orthogonalEdgeStyle;strokeColor=#000000;" parent="1" edge="1">
          <mxGeometry relative="1" as="geometry">
            <mxPoint x="1070" y="700" as="sourcePoint" />
            <mxPoint x="1180" y="700" as="targetPoint" />
          </mxGeometry>
        </mxCell>
        <mxCell id="3jf83I4nimgOCl_raEro-29" value="" style="endArrow=open;html=1;endSize=12;startArrow=diamondThin;startSize=14;startFill=1;edgeStyle=orthogonalEdgeStyle;strokeColor=#000000;" parent="1" edge="1">
          <mxGeometry relative="1" as="geometry">
            <mxPoint x="1340" y="730" as="sourcePoint" />
            <mxPoint x="1440" y="730" as="targetPoint" />
          </mxGeometry>
        </mxCell>
        <mxCell id="NZDahVDV4dqtFsmkMAfQ-3" value="" style="endArrow=open;endFill=1;endSize=12;html=1;entryX=0.005;entryY=0.168;entryDx=0;entryDy=0;entryPerimeter=0;" edge="1" parent="1" target="H1896AjHUctSjdvz1oI7-39">
          <mxGeometry width="160" relative="1" as="geometry">
            <mxPoint x="750" y="580" as="sourcePoint" />
            <mxPoint x="820" y="710" as="targetPoint" />
            <Array as="points">
              <mxPoint x="820" y="580" />
              <mxPoint x="820" y="680" />
            </Array>
          </mxGeometry>
        </mxCell>
        <mxCell id="NZDahVDV4dqtFsmkMAfQ-4" value="Matrix" style="swimlane;fontStyle=1;align=center;verticalAlign=top;childLayout=stackLayout;horizontal=1;startSize=26;horizontalStack=0;resizeParent=1;resizeParentMax=0;resizeLast=0;collapsible=1;marginBottom=0;" vertex="1" parent="1">
          <mxGeometry x="600" y="806" width="160" height="86" as="geometry" />
        </mxCell>
        <mxCell id="NZDahVDV4dqtFsmkMAfQ-5" value="- vector&lt;vector&lt;int&gt;&gt;" style="text;strokeColor=none;fillColor=none;align=left;verticalAlign=top;spacingLeft=4;spacingRight=4;overflow=hidden;rotatable=0;points=[[0,0.5],[1,0.5]];portConstraint=eastwest;" vertex="1" parent="NZDahVDV4dqtFsmkMAfQ-4">
          <mxGeometry y="26" width="160" height="26" as="geometry" />
        </mxCell>
        <mxCell id="NZDahVDV4dqtFsmkMAfQ-6" value="" style="line;strokeWidth=1;fillColor=none;align=left;verticalAlign=middle;spacingTop=-1;spacingLeft=3;spacingRight=3;rotatable=0;labelPosition=right;points=[];portConstraint=eastwest;" vertex="1" parent="NZDahVDV4dqtFsmkMAfQ-4">
          <mxGeometry y="52" width="160" height="8" as="geometry" />
        </mxCell>
        <mxCell id="NZDahVDV4dqtFsmkMAfQ-7" value="+ operator[]" style="text;strokeColor=none;fillColor=none;align=left;verticalAlign=top;spacingLeft=4;spacingRight=4;overflow=hidden;rotatable=0;points=[[0,0.5],[1,0.5]];portConstraint=eastwest;" vertex="1" parent="NZDahVDV4dqtFsmkMAfQ-4">
          <mxGeometry y="60" width="160" height="26" as="geometry" />
        </mxCell>
      </root>
    </mxGraphModel>
  </diagram>
</mxfile>
